# xmcd
#
# Track frame offsets:
#	150
#	13679
#	29473
#	47095
#	61803
#	82510
#	99510
#	117862
#	133360
#	146571
#
# Disc length: 2194 seconds
#
# Revision: 0
# Processed by: cddbd v1.5.2PL0 Copyright (c) Steve Scherf et al.
# Submitted via: dBpowerAMP V4.0
#
DISCID=7e08900a
DTITLE=Johnny Reid - Kicking Stones
DYEAR=2007
DGENRE=Country
TTITLE0=Out Of The Blue
TTITLE1=Love Sweet Love
TTITLE2=Thank You
TTITLE3=Darlin'
TTITLE4=Feelin' Alright Today
TTITLE5=Which Way Is Home
TTITLE6=What I Did For Love
TTITLE7=That Kind Of Lonely
TTITLE8=To The End Of The Road
TTITLE9=Kicking Stones
EXTD=
EXTT0=
EXTT1=
EXTT2=
EXTT3=
EXTT4=
EXTT5=
EXTT6=
EXTT7=
EXTT8=
EXTT9=
PLAYORDER=
